<?xml version="1.0" encoding="UTF-8"?>
<!DOCTYPE svg PUBLIC "-//W3C//DTD SVG 1.1//EN" "http://www.w3.org/Graphics/SVG/1.1/DTD/svg11.dtd">
<svg xmlns="http://www.w3.org/2000/svg" version="1.1" width="240px" height="240px" style="shape-rendering:geometricPrecision; text-rendering:geometricPrecision; image-rendering:optimizeQuality; fill-rule:evenodd; clip-rule:evenodd" xmlns:xlink="http://www.w3.org/1999/xlink">
<g><path style="opacity:0.388" fill="#a9a9a4" d="M 96.5,8.5 C 94.7354,9.46138 92.7354,9.79472 90.5,9.5C 92.2184,8.77602 94.0517,8.10936 96,7.5C 96.3988,7.72845 96.5654,8.06178 96.5,8.5 Z"/></g>
<g><path style="opacity:0.439" fill="#adacaa" d="M 122.5,9.5 C 120.265,9.79472 118.265,9.46138 116.5,8.5C 118.556,7.83895 120.556,8.17228 122.5,9.5 Z"/></g>
<g><path style="opacity:0.106" fill="#b0acad" d="M 146.5,10.5 C 138.981,10.825 131.648,10.4916 124.5,9.5C 124.435,9.06178 124.601,8.72845 125,8.5C 132.266,9.15112 139.432,9.81778 146.5,10.5 Z"/></g>
<g><path style="opacity:0.216" fill="#a3a3a1" d="M 85.5,10.5 C 83.6287,11.7972 81.6287,12.7972 79.5,13.5C 78.5,13.5 77.5,13.5 76.5,13.5C 79.1461,11.7475 82.1461,10.7475 85.5,10.5 Z"/></g>
<g><path style="opacity:0.999" fill="#0a0a0a" d="M 118.5,12.5 C 120.216,28.1516 121.216,44.1516 121.5,60.5C 120.992,66.7614 121.492,73.0947 123,79.5C 123.833,78.5 124.667,77.5 125.5,76.5C 126.5,76.8333 127.167,77.5 127.5,78.5C 131.5,78.8333 135.5,79.1667 139.5,79.5C 148.87,78.6579 158.204,77.4912 167.5,76C 172.768,72.6002 173.434,73.2669 169.5,78C 170.737,78.2321 171.737,78.7321 172.5,79.5C 172.427,81.0269 173.094,82.0269 174.5,82.5C 175.419,85.0892 177.086,87.0892 179.5,88.5C 182.258,91.678 184.258,95.3447 185.5,99.5C 185.66,101.153 186.326,102.486 187.5,103.5C 188.506,103.938 188.506,104.604 187.5,105.5C 187.328,106.492 187.662,107.158 188.5,107.5C 188.953,108.458 189.619,109.292 190.5,110C 189.748,110.671 189.414,111.504 189.5,112.5C 189.232,114.099 189.566,115.432 190.5,116.5C 191.482,119.962 191.815,123.629 191.5,127.5C 184.825,127.666 178.158,127.5 171.5,127C 170.748,126.329 170.414,125.496 170.5,124.5C 170.737,123.209 170.404,122.209 169.5,121.5C 168.942,119.407 167.609,117.907 165.5,117C 166.056,116.617 166.389,116.117 166.5,115.5C 165.488,114.128 164.488,112.795 163.5,111.5C 162.761,111.631 162.094,111.464 161.5,111C 162.598,110.23 162.598,109.397 161.5,108.5C 161.167,107.5 160.5,106.833 159.5,106.5C 158.415,104.413 156.749,103.08 154.5,102.5C 153.167,101.833 151.833,101.167 150.5,100.5C 149.713,98.8958 148.38,98.2291 146.5,98.5C 146.827,108.681 146.494,118.681 145.5,128.5C 145.167,127.5 144.5,126.833 143.5,126.5C 141.273,124.393 139.273,122.06 137.5,119.5C 137.167,118.5 136.5,117.833 135.5,117.5C 135.167,116.5 134.5,115.833 133.5,115.5C 132.833,114.5 132.167,113.5 131.5,112.5C 130.833,111.167 129.833,110.167 128.5,109.5C 127.833,109.5 127.5,109.167 127.5,108.5C 127.167,107.5 126.5,106.833 125.5,106.5C 123.515,104.576 121.515,102.576 119.5,100.5C 118.304,100.846 118.304,101.346 119.5,102C 118.473,102.513 117.473,103.013 116.5,103.5C 114.833,104.5 113.5,105.833 112.5,107.5C 111.5,109.167 110.167,110.5 108.5,111.5C 107.167,112.167 106.167,113.167 105.5,114.5C 104.5,115.833 103.5,117.167 102.5,118.5C 100.973,118.427 99.9731,119.094 99.5,120.5C 97.5328,123.468 95.1995,126.135 92.5,128.5C 91.8333,119.5 91.1667,110.5 90.5,101.5C 89.209,101.737 88.209,101.404 87.5,100.5C 87.0269,99.0937 86.0269,98.427 84.5,98.5C 83.1667,98.1667 81.8333,97.8333 80.5,97.5C 78.5615,95.8372 76.2282,95.1706 73.5,95.5C 70.1667,95.5 66.8333,95.5 63.5,95.5C 61.5853,95.2155 59.9187,95.5489 58.5,96.5C 57.209,96.2627 56.209,96.596 55.5,97.5C 53.9505,98.4408 52.2838,99.1075 50.5,99.5C 49.8333,99.5 49.1667,99.5 48.5,99.5C 45.9028,99.2792 45.9028,98.7792 48.5,98C 45.8428,97.8253 43.1761,97.9919 40.5,98.5C 40.5,99.5 40.5,100.5 40.5,101.5C 37.9339,101.656 35.4339,101.322 33,100.5C 31.518,102.112 29.6847,103.112 27.5,103.5C 27.3399,99.7636 26.5066,99.7636 25,103.5C 24.6667,101.833 24.3333,100.167 24,98.5C 23.6667,99.1667 23.3333,99.8333 23,100.5C 21.0283,99.6948 19.5283,98.3615 18.5,96.5C 21.0677,95.1324 23.4011,95.4658 25.5,97.5C 28.8304,95.9609 32.1638,94.6275 35.5,93.5C 35.5,93.1667 35.5,92.8333 35.5,92.5C 36.5,92.1667 37.1667,91.5 37.5,90.5C 38.7899,89.9423 39.6232,88.9423 40,87.5C 40.3826,88.056 40.8826,88.3893 41.5,88.5C 42.6879,87.3157 43.8545,87.3157 45,88.5C 45.4101,87.0993 45.9101,85.766 46.5,84.5C 46.8333,84.5 47.1667,84.5 47.5,84.5C 49.0269,84.573 50.0269,83.9063 50.5,82.5C 51.391,81.8902 52.391,81.5569 53.5,81.5C 57.1621,81.2766 60.4954,80.2766 63.5,78.5C 63.8333,78.5 64.1667,78.5 64.5,78.5C 70.8333,78.5 77.1667,78.5 83.5,78.5C 85.7354,78.2053 87.7354,78.5386 89.5,79.5C 90.209,80.404 91.209,80.7373 92.5,80.5C 92.5,68.1667 92.5,55.8333 92.5,43.5C 91.1667,43.5 89.8333,43.5 88.5,43.5C 90.2877,40.9337 92.121,40.9337 94,43.5C 95.5691,42.8778 97.2358,42.5445 99,42.5C 103.093,43.9025 107.259,44.4025 111.5,44C 112.38,42.6439 112.714,41.1439 112.5,39.5C 113.309,37.7078 113.809,35.7078 114,33.5C 114.667,37.5 115.333,37.5 116,33.5C 116.333,37.1667 116.667,40.8333 117,44.5C 118.288,37.5631 118.788,30.5631 118.5,23.5C 118.5,19.8333 118.5,16.1667 118.5,12.5 Z"/></g>
<g><path style="opacity:1" fill="#2b291b" d="M 118.5,12.5 C 118.5,16.1667 118.5,19.8333 118.5,23.5C 117.244,23.0962 116.077,22.4295 115,21.5C 112.749,21.6897 110.249,22.023 107.5,22.5C 101.845,21.8727 96.1787,21.3727 90.5,21C 89.3333,20.5 88.5,19.6667 88,18.5C 87.5172,19.448 87.3505,20.448 87.5,21.5C 84.8333,21.5 82.1667,21.5 79.5,21.5C 79.6427,19.7376 79.3094,18.0709 78.5,16.5C 79.3569,15.5748 80.3569,14.9081 81.5,14.5C 93.7861,10.3466 106.119,9.67992 118.5,12.5 Z"/></g>
<g><path style="opacity:0.294" fill="#bdbdbd" d="M 65.5,18.5 C 64.4863,19.6737 63.153,20.3404 61.5,20.5C 62.287,18.8958 63.6203,18.2291 65.5,18.5 Z"/></g>
<g><path style="opacity:0.565" fill="#8f8f91" d="M 181.5,23.5 C 180.041,23.4326 178.708,23.7659 177.5,24.5C 178.244,21.1155 179.577,20.7822 181.5,23.5 Z"/></g>
<g><path style="opacity:0.267" fill="#c0c0c0" d="M 56.5,23.5 C 55.7377,25.2624 54.4044,26.2624 52.5,26.5C 53.2623,24.7376 54.5956,23.7376 56.5,23.5 Z"/></g>
<g><path style="opacity:0.012" fill="#eeede9" d="M 185.5,25.5 C 187.027,25.427 188.027,26.0937 188.5,27.5C 186.973,27.573 185.973,26.9063 185.5,25.5 Z"/></g>
<g><path style="opacity:0.173" fill="#cecece" d="M 52.5,26.5 C 52.5,26.8333 52.5,27.1667 52.5,27.5C 51.8333,27.8333 51.1667,28.1667 50.5,28.5C 50.5,27.1667 51.1667,26.5 52.5,26.5 Z"/></g>
<g><path style="opacity:1" fill="#1e1d1a" d="M 76.5,13.5 C 77.5,13.5 78.5,13.5 79.5,13.5C 80.4916,13.3284 81.1583,13.6618 81.5,14.5C 80.3569,14.9081 79.3569,15.5748 78.5,16.5C 79.3094,18.0709 79.6427,19.7376 79.5,21.5C 82.1667,21.5 84.8333,21.5 87.5,21.5C 87.3505,20.448 87.5172,19.448 88,18.5C 88.5,19.6667 89.3333,20.5 90.5,21C 96.1787,21.3727 101.845,21.8727 107.5,22.5C 110.249,22.023 112.749,21.6897 115,21.5C 116.077,22.4295 117.244,23.0962 118.5,23.5C 118.788,30.5631 118.288,37.5631 117,44.5C 116.667,40.8333 116.333,37.1667 116,33.5C 115.333,37.5 114.667,37.5 114,33.5C 113.809,35.7078 113.309,37.7078 112.5,39.5C 112.663,37.1432 112.497,34.8098 112,32.5C 111.506,34.1341 111.34,35.8008 111.5,37.5C 108.813,37.6641 106.146,37.4974 103.5,37C 94.4783,33.2402 85.145,31.7402 75.5,32.5C 68.4362,31.723 61.6028,31.0564 55,30.5C 50.4651,32.5785 50.2985,31.7452 54.5,28C 53.9056,27.5357 53.2389,27.369 52.5,27.5C 52.5,27.1667 52.5,26.8333 52.5,26.5C 54.4044,26.2624 55.7377,25.2624 56.5,23.5C 58.0009,22.2485 59.6675,21.2485 61.5,20.5C 63.153,20.3404 64.4863,19.6737 65.5,18.5C 68.7403,16.049 72.4069,14.3824 76.5,13.5 Z"/></g>
<g><path style="opacity:0.263" fill="#bebdbc" d="M 177.5,24.5 C 176.5,26.1667 175.167,27.5 173.5,28.5C 173.833,26.1667 175.167,24.8333 177.5,24.5 Z"/></g>
<g><path style="opacity:0.098" fill="#e6e6e6" d="M 173.5,28.5 C 173.167,29.5 172.5,30.1667 171.5,30.5C 171.5,29.1667 172.167,28.5 173.5,28.5 Z"/></g>
<g><path style="opacity:0.051" fill="#c4c3c4" d="M 190.5,29.5 C 192.5,29.5 193.5,30.5 193.5,32.5C 192.167,31.8333 191.167,30.8333 190.5,29.5 Z"/></g>
<g><path style="opacity:0.188" fill="#c9c9c9" d="M 45.5,32.5 C 45.1667,33.5 44.5,34.1667 43.5,34.5C 43.5,33.1667 44.1667,32.5 45.5,32.5 Z"/></g>
<g><path style="opacity:0.204" fill="#c3c3c3" d="M 43.5,34.5 C 43.1667,35.5 42.5,36.1667 41.5,36.5C 41.5,35.1667 42.1667,34.5 43.5,34.5 Z"/></g>
<g><path style="opacity:1" fill="#18180e" d="M 181.5,23.5 C 183.153,23.6596 184.486,24.3263 185.5,25.5C 185.973,26.9063 186.973,27.573 188.5,27.5C 189.5,27.8333 190.167,28.5 190.5,29.5C 191.167,30.8333 192.167,31.8333 193.5,32.5C 197.146,34.4819 200.146,37.1485 202.5,40.5C 202.5,40.8333 202.5,41.1667 202.5,41.5C 200.976,40.8262 199.642,39.8262 198.5,38.5C 198.167,38.8333 197.833,39.1667 197.5,39.5C 198.924,41.2913 200.258,43.1246 201.5,45C 200.457,46.9756 199.123,47.4756 197.5,46.5C 194.833,47.1667 192.167,47.8333 189.5,48.5C 182.913,47.2931 176.08,47.2931 169,48.5C 167.956,47.3774 167.29,46.0441 167,44.5C 166.667,45.5 166.333,46.5 166,47.5C 165.333,46.1667 164.667,46.1667 164,47.5C 163.308,46.9747 162.808,46.3081 162.5,45.5C 164.08,42.4158 166.414,40.2491 169.5,39C 170.194,37.2977 170.194,35.4643 169.5,33.5C 169.5,33.1667 169.5,32.8333 169.5,32.5C 169.833,31.5 170.5,30.8333 171.5,30.5C 172.5,30.1667 173.167,29.5 173.5,28.5C 175.167,27.5 176.5,26.1667 177.5,24.5C 178.708,23.7659 180.041,23.4326 181.5,23.5 Z"/></g>
<g><path style="opacity:0.106" fill="#dedede" d="M 40.5,37.5 C 39.8333,38.8333 38.8333,39.8333 37.5,40.5C 37.5,38.5 38.5,37.5 40.5,37.5 Z"/></g>
<g><path style="opacity:0.18" fill="#c9c8c4" d="M 169.5,32.5 C 169.5,32.8333 169.5,33.1667 169.5,33.5C 167.167,36.5 164.5,39.1667 161.5,41.5C 163.43,37.8998 166.097,34.8998 169.5,32.5 Z"/></g>
<g><path style="opacity:0.682" fill="#a0a0a0" d="M 37.5,40.5 C 36.9202,42.7488 35.5869,44.4154 33.5,45.5C 34.0798,43.2512 35.4131,41.5846 37.5,40.5 Z"/></g>
<g><path style="opacity:0.404" fill="#bdbdbb" d="M 202.5,40.5 C 204.262,41.2623 205.262,42.5956 205.5,44.5C 204.167,43.8333 203.167,42.8333 202.5,41.5C 202.5,41.1667 202.5,40.8333 202.5,40.5 Z"/></g>
<g><path style="opacity:0.047" fill="#d5d3d4" d="M 87.5,44.5 C 85.7857,45.7384 83.7857,46.405 81.5,46.5C 83.1016,44.9261 85.1016,44.2594 87.5,44.5 Z"/></g>
<g><path style="opacity:0.475" fill="#9a9a96" d="M 205.5,44.5 C 207.262,45.2623 208.262,46.5956 208.5,48.5C 206.738,47.7377 205.738,46.4044 205.5,44.5 Z"/></g>
<g><path style="opacity:0.094" fill="#d2d1d1" d="M 81.5,46.5 C 79.2084,48.2671 76.5418,49.2671 73.5,49.5C 75.6845,47.4152 78.3511,46.4152 81.5,46.5 Z"/></g>
<g><path style="opacity:1" fill="#535353" d="M 73.5,49.5 C 70.7089,51.7349 67.7089,53.7349 64.5,55.5C 63.7366,51.5911 65.0699,50.2578 68.5,51.5C 69.8415,49.9951 71.5082,49.3285 73.5,49.5 Z"/></g>
<g><path style="opacity:0.302" fill="#bab9b8" d="M 146.5,13.5 C 147.331,26.3269 147.831,39.3269 148,52.5C 148.342,54.6192 149.175,54.9526 150.5,53.5C 150.288,55.3841 149.288,56.7174 147.5,57.5C 146.501,42.8485 146.167,28.1818 146.5,13.5 Z"/></g>
<g><path style="opacity:0.043" fill="#cfcfcd" d="M 211.5,53.5 C 212.833,53.5 213.5,54.1667 213.5,55.5C 212.5,55.1667 211.833,54.5 211.5,53.5 Z"/></g>
<g><path style="opacity:0.165" fill="#c9c9c9" d="M 28.5,52.5 C 28.573,54.0269 27.9063,55.0269 26.5,55.5C 26.427,53.9731 27.0937,52.9731 28.5,52.5 Z"/></g>
<g><path style="opacity:1" fill="#0d0d09" d="M 116.5,8.5 C 118.265,9.46138 120.265,9.79472 122.5,9.5C 123.167,9.5 123.833,9.5 124.5,9.5C 131.648,10.4916 138.981,10.825 146.5,10.5C 147.116,11.2022 147.116,12.2022 146.5,13.5C 146.167,28.1818 146.501,42.8485 147.5,57.5C 149.288,56.7174 150.288,55.3841 150.5,53.5C 154.898,50.1053 158.564,46.1053 161.5,41.5C 164.5,39.1667 167.167,36.5 169.5,33.5C 170.194,35.4643 170.194,37.2977 169.5,39C 166.414,40.2491 164.08,42.4158 162.5,45.5C 162.808,46.3081 163.308,46.9747 164,47.5C 164.667,46.1667 165.333,46.1667 166,47.5C 166.333,46.5 166.667,45.5 167,44.5C 167.29,46.0441 167.956,47.3774 169,48.5C 176.08,47.2931 182.913,47.2931 189.5,48.5C 192.167,47.8333 194.833,47.1667 197.5,46.5C 199.123,47.4756 200.457,46.9756 201.5,45C 200.258,43.1246 198.924,41.2913 197.5,39.5C 197.833,39.1667 198.167,38.8333 198.5,38.5C 199.642,39.8262 200.976,40.8262 202.5,41.5C 203.167,42.8333 204.167,43.8333 205.5,44.5C 205.738,46.4044 206.738,47.7377 208.5,48.5C 209.89,49.8993 210.89,51.5659 211.5,53.5C 211.833,54.5 212.5,55.1667 213.5,55.5C 216.927,60.0157 219.593,65.0157 221.5,70.5C 216.665,68.9713 215.999,69.4713 219.5,72C 218.167,74.3333 216.833,76.6667 215.5,79C 212.833,79.6667 210.167,79.6667 207.5,79C 206.663,77.9887 206.33,76.8221 206.5,75.5C 204.167,75.5 201.833,75.5 199.5,75.5C 199.649,76.552 199.483,77.552 199,78.5C 197.022,76.2539 196.022,73.9205 196,71.5C 195.781,72.938 195.281,74.2713 194.5,75.5C 191.525,72.7007 190.525,73.034 191.5,76.5C 190.094,76.0269 189.427,75.0269 189.5,73.5C 188.833,72.1667 187.833,71.1667 186.5,70.5C 186.585,69.0047 185.919,68.0047 184.5,67.5C 181.812,69.5211 179.479,71.8544 177.5,74.5C 176.54,76.4607 175.207,78.1274 173.5,79.5C 173.167,79.5 172.833,79.5 172.5,79.5C 171.737,78.7321 170.737,78.2321 169.5,78C 173.434,73.2669 172.768,72.6002 167.5,76C 158.204,77.4912 148.87,78.6579 139.5,79.5C 135.5,79.1667 131.5,78.8333 127.5,78.5C 127.167,77.5 126.5,76.8333 125.5,76.5C 124.667,77.5 123.833,78.5 123,79.5C 121.492,73.0947 120.992,66.7614 121.5,60.5C 121.216,44.1516 120.216,28.1516 118.5,12.5C 106.119,9.67992 93.7861,10.3466 81.5,14.5C 81.1583,13.6618 80.4916,13.3284 79.5,13.5C 81.6287,12.7972 83.6287,11.7972 85.5,10.5C 86.9187,9.54885 88.5853,9.21552 90.5,9.5C 92.7354,9.79472 94.7354,9.46138 96.5,8.5C 103.167,7.16667 109.833,7.16667 116.5,8.5 Z"/></g>
<g><path style="opacity:0.18" fill="#c5c4c3" d="M 161.5,41.5 C 158.564,46.1053 154.898,50.1053 150.5,53.5C 153.436,48.8947 157.102,44.8947 161.5,41.5 Z"/></g>
<g><path style="opacity:1" fill="#131309" d="M 143.5,13.5 C 144.462,26.1689 144.795,38.8356 144.5,51.5C 143.96,52.7481 143.293,53.9148 142.5,55C 137.511,55.4993 132.511,55.6659 127.5,55.5C 127.663,57.8568 127.497,60.1902 127,62.5C 126.667,60.5 126.333,58.5 126,56.5C 124.667,56.5 123.333,56.5 122,56.5C 121.5,45.505 121.333,34.505 121.5,23.5C 122.497,23.4701 123.164,23.9701 123.5,25C 124.127,27.1351 124.627,29.3018 125,31.5C 125.333,30.1667 125.667,28.8333 126,27.5C 129.866,28.9512 133.866,30.2846 138,31.5C 139.69,30.8505 141.523,30.8505 143.5,31.5C 143.5,25.5 143.5,19.5 143.5,13.5 Z"/></g>
<g><path style="opacity:1" fill="#252410" d="M 143.5,13.5 C 143.5,19.5 143.5,25.5 143.5,31.5C 141.523,30.8505 139.69,30.8505 138,31.5C 133.866,30.2846 129.866,28.9512 126,27.5C 125.667,28.8333 125.333,30.1667 125,31.5C 124.627,29.3018 124.127,27.1351 123.5,25C 123.164,23.9701 122.497,23.4701 121.5,23.5C 121.5,19.8333 121.5,16.1667 121.5,12.5C 129.019,12.175 136.352,12.5084 143.5,13.5 Z"/></g>
<g><path style="opacity:0.024" fill="#e7e6e6" d="M 64.5,55.5 C 63.7377,57.2624 62.4044,58.2624 60.5,58.5C 61.2623,56.7376 62.5956,55.7376 64.5,55.5 Z"/></g>
<g><path style="opacity:0.137" fill="#c4c4c4" d="M 23.5,61.5 C 23.573,63.0269 22.9063,64.0269 21.5,64.5C 21.427,62.9731 22.0937,61.9731 23.5,61.5 Z"/></g>
<g><path style="opacity:0.059" fill="#cfcece" d="M 58.5,60.5 C 57.0892,62.914 55.0892,64.5806 52.5,65.5C 53.9108,63.086 55.9108,61.4194 58.5,60.5 Z"/></g>
<g><path style="opacity:0.349" fill="#acacac" d="M 87.5,44.5 C 87.5,43.8333 87.8333,43.5 88.5,43.5C 89.8333,43.5 91.1667,43.5 92.5,43.5C 92.5,55.8333 92.5,68.1667 92.5,80.5C 91.209,80.7373 90.209,80.404 89.5,79.5C 90.7868,78.1286 91.4535,76.2953 91.5,74C 90.8701,64.4253 90.8701,54.9253 91.5,45.5C 90.1395,45.2124 88.8062,44.879 87.5,44.5 Z"/></g>
<g><path style="opacity:0.388" fill="#bcbcbc" d="M 20.5,67.5 C 20.6716,68.4916 20.3382,69.1583 19.5,69.5C 18.5613,68.6726 18.8946,68.0059 20.5,67.5 Z"/></g>
<g><path style="opacity:0.004" fill="#e9e9e6" d="M 186.5,70.5 C 185.85,70.1961 185.183,69.8627 184.5,69.5C 182.408,71.6049 180.075,73.2716 177.5,74.5C 179.479,71.8544 181.812,69.5211 184.5,67.5C 185.919,68.0047 186.585,69.0047 186.5,70.5 Z"/></g>
<g><path style="opacity:0.02" fill="#e9e9e7" d="M 186.5,70.5 C 187.833,71.1667 188.833,72.1667 189.5,73.5C 187.5,73.5 186.5,72.5 186.5,70.5 Z"/></g>
<g><path style="opacity:0.999" fill="#0e0e0e" d="M 221.5,70.5 C 223.687,74.8954 225.354,79.5621 226.5,84.5C 226.528,87.9164 227.528,90.9164 229.5,93.5C 230.306,94.9972 230.972,96.6639 231.5,98.5C 231.291,99.086 230.957,99.586 230.5,100C 233.147,111.836 233.147,123.669 230.5,135.5C 229.532,137.607 229.198,139.941 229.5,142.5C 229.5,142.833 229.5,143.167 229.5,143.5C 228.596,144.209 228.263,145.209 228.5,146.5C 228.5,147.167 228.5,147.833 228.5,148.5C 227.388,150.599 226.721,152.933 226.5,155.5C 226.5,155.833 226.5,156.167 226.5,156.5C 225.262,158.214 224.595,160.214 224.5,162.5C 224.737,163.791 224.404,164.791 223.5,165.5C 222.323,167.679 221.323,170.013 220.5,172.5C 220.5,172.833 220.5,173.167 220.5,173.5C 219.522,173.189 218.855,172.522 218.5,171.5C 219.428,170.232 219.595,168.899 219,167.5C 217.667,166.833 216.667,165.833 216,164.5C 215.667,165.167 215.333,165.833 215,166.5C 214.502,163.179 213.002,160.513 210.5,158.5C 210.963,155.518 211.296,152.518 211.5,149.5C 211.5,142.833 211.5,136.167 211.5,129.5C 211.72,124.9 211.054,120.567 209.5,116.5C 208.566,115.432 208.232,114.099 208.5,112.5C 208.737,111.209 208.404,110.209 207.5,109.5C 207.5,109.167 207.5,108.833 207.5,108.5C 207.065,105.843 206.065,103.509 204.5,101.5C 203.273,96.718 201.273,92.3847 198.5,88.5C 197.662,88.1583 197.328,87.4916 197.5,86.5C 197.573,84.9731 196.906,83.9731 195.5,83.5C 194.662,83.1583 194.328,82.4916 194.5,81.5C 193.89,79.5659 192.89,77.8993 191.5,76.5C 190.525,73.034 191.525,72.7007 194.5,75.5C 195.281,74.2713 195.781,72.938 196,71.5C 196.022,73.9205 197.022,76.2539 199,78.5C 199.483,77.552 199.649,76.552 199.5,75.5C 201.833,75.5 204.167,75.5 206.5,75.5C 206.33,76.8221 206.663,77.9887 207.5,79C 210.167,79.6667 212.833,79.6667 215.5,79C 216.833,76.6667 218.167,74.3333 219.5,72C 215.999,69.4713 216.665,68.9713 221.5,70.5 Z"/></g>
<g><path style="opacity:0.051" fill="#e2e0e1" d="M 46.5,73.5 C 46.573,75.0269 45.9063,76.0269 44.5,76.5C 44.427,74.9731 45.0937,73.9731 46.5,73.5 Z"/></g>
<g><path style="opacity:0.004" fill="#ebe9ea" d="M 44.5,76.5 C 44.573,78.0269 43.9063,79.0269 42.5,79.5C 42.427,77.9731 43.0937,76.9731 44.5,76.5 Z"/></g>
<g><path style="opacity:0.561" fill="#a8a8a8" d="M 83.5,78.5 C 77.1667,78.5 70.8333,78.5 64.5,78.5C 66.1368,77.6204 67.9701,76.9537 70,76.5C 73.3793,76.5958 76.7126,76.5958 80,76.5C 81.3024,77.0848 82.469,77.7515 83.5,78.5 Z"/></g>
<g><path style="opacity:0.122" fill="#dfdfdd" d="M 191.5,76.5 C 192.89,77.8993 193.89,79.5659 194.5,81.5C 192.273,80.5994 191.273,78.9328 191.5,76.5 Z"/></g>
<g><path style="opacity:0.745" fill="#838383" d="M 63.5,78.5 C 60.4954,80.2766 57.1621,81.2766 53.5,81.5C 54.0076,79.7673 54.841,79.434 56,80.5C 58.1917,79.6005 60.3584,78.6005 62.5,77.5C 63.1067,77.6236 63.44,77.9569 63.5,78.5 Z"/></g>
<g><path style="opacity:0.004" fill="#f9f9f7" d="M 172.5,79.5 C 172.833,79.5 173.167,79.5 173.5,79.5C 174.11,80.391 174.443,81.391 174.5,82.5C 173.094,82.0269 172.427,81.0269 172.5,79.5 Z"/></g>
<g><path style="opacity:0.89" fill="#8a8a8a" d="M 15.5,80.5 C 15.4725,83.9164 14.4725,86.9164 12.5,89.5C 12.7475,86.1461 13.7475,83.1461 15.5,80.5 Z"/></g>
<g><path style="opacity:0.569" fill="#9b9b9b" d="M 50.5,82.5 C 50.0269,83.9063 49.0269,84.573 47.5,84.5C 47.9731,83.0937 48.9731,82.427 50.5,82.5 Z"/></g>
<g><path style="opacity:0.055" fill="#e7e7e7" d="M 195.5,83.5 C 196.906,83.9731 197.573,84.9731 197.5,86.5C 196.094,86.0269 195.427,85.0269 195.5,83.5 Z"/></g>
<g><path style="opacity:0.959" fill="#707070" d="M 46.5,84.5 C 45.9101,85.766 45.4101,87.0993 45,88.5C 43.8545,87.3157 42.6879,87.3157 41.5,88.5C 42.7417,86.7499 44.2417,85.0832 46,83.5C 46.3988,83.7284 46.5654,84.0618 46.5,84.5 Z"/></g>
<g><path style="opacity:1" fill="#121212" d="M 52.5,27.5 C 53.2389,27.369 53.9056,27.5357 54.5,28C 50.2985,31.7452 50.4651,32.5785 55,30.5C 61.6028,31.0564 68.4362,31.723 75.5,32.5C 85.145,31.7402 94.4783,33.2402 103.5,37C 106.146,37.4974 108.813,37.6641 111.5,37.5C 111.34,35.8008 111.506,34.1341 112,32.5C 112.497,34.8098 112.663,37.1432 112.5,39.5C 112.714,41.1439 112.38,42.6439 111.5,44C 107.259,44.4025 103.093,43.9025 99,42.5C 97.2358,42.5445 95.5691,42.8778 94,43.5C 92.121,40.9337 90.2877,40.9337 88.5,43.5C 87.8333,43.5 87.5,43.8333 87.5,44.5C 85.1016,44.2594 83.1016,44.9261 81.5,46.5C 78.3511,46.4152 75.6845,47.4152 73.5,49.5C 71.5082,49.3285 69.8415,49.9951 68.5,51.5C 65.0699,50.2578 63.7366,51.5911 64.5,55.5C 62.5956,55.7376 61.2623,56.7376 60.5,58.5C 60.1667,59.5 59.5,60.1667 58.5,60.5C 55.9108,61.4194 53.9108,63.086 52.5,65.5C 51.7101,66.7942 50.7101,67.9609 49.5,69C 49.8333,69.3333 50.1667,69.6667 50.5,70C 48.6498,70.6897 47.3164,71.8564 46.5,73.5C 45.0937,73.9731 44.427,74.9731 44.5,76.5C 43.0937,76.9731 42.427,77.9731 42.5,79.5C 40.4651,83.1705 38.4651,86.3371 36.5,89C 37.056,89.3826 37.3893,89.8826 37.5,90.5C 36.1667,90.5 35.5,91.1667 35.5,92.5C 34.1667,92.8333 34.1667,93.1667 35.5,93.5C 32.1638,94.6275 28.8304,95.9609 25.5,97.5C 23.4011,95.4658 21.0677,95.1324 18.5,96.5C 19.5283,98.3615 21.0283,99.6948 23,100.5C 23.3333,99.8333 23.6667,99.1667 24,98.5C 24.3333,100.167 24.6667,101.833 25,103.5C 26.5066,99.7636 27.3399,99.7636 27.5,103.5C 29.6847,103.112 31.518,102.112 33,100.5C 35.4339,101.322 37.9339,101.656 40.5,101.5C 40.5,100.5 40.5,99.5 40.5,98.5C 43.1761,97.9919 45.8428,97.8253 48.5,98C 45.9028,98.7792 45.9028,99.2792 48.5,99.5C 48.1667,100.167 47.8333,100.833 47.5,101.5C 45.7952,103.192 43.7952,104.525 41.5,105.5C 40.5,105.833 39.8333,106.5 39.5,107.5C 39.1667,108.5 38.5,109.167 37.5,109.5C 36.0937,109.973 35.427,110.973 35.5,112.5C 34.8333,112.5 34.5,112.833 34.5,113.5C 33.5,113.833 32.8333,114.5 32.5,115.5C 32.2671,117.062 31.6005,118.395 30.5,119.5C 29.0256,120.436 28.0256,121.77 27.5,123.5C 27.7845,125.415 27.4511,127.081 26.5,128.5C 25.1667,134.167 25.1667,139.833 26.5,145.5C 26.2322,147.099 26.5655,148.432 27.5,149.5C 28.2653,152.096 28.5987,154.763 28.5,157.5C 28.2865,159.144 28.6198,160.644 29.5,162C 27.741,163.008 26.5743,164.508 26,166.5C 25.6824,164.939 24.8491,163.772 23.5,163C 24.6734,159.89 24.1734,159.723 22,162.5C 21.5,161.333 20.6667,160.5 19.5,160C 20.7836,158.703 20.6169,157.536 19,156.5C 18.1301,157.108 17.6301,157.941 17.5,159C 20.9784,168.11 24.8118,176.943 29,185.5C 27.8873,184.695 26.7206,184.028 25.5,183.5C 24.2536,181.992 22.9203,180.492 21.5,179C 22.5981,178.23 22.5981,177.397 21.5,176.5C 21.3404,174.847 20.6737,173.514 19.5,172.5C 18.596,171.791 18.2627,170.791 18.5,169.5C 18.2041,167.597 17.5375,165.93 16.5,164.5C 15.6618,164.158 15.3284,163.492 15.5,162.5C 15.2785,159.933 14.6118,157.599 13.5,155.5C 8.78769,139.799 7.45436,123.799 9.5,107.5C 10.6167,103.705 11.2833,99.7051 11.5,95.5C 11.5,95.1667 11.5,94.8333 11.5,94.5C 12.4511,93.0813 12.7845,91.4147 12.5,89.5C 14.4725,86.9164 15.4725,83.9164 15.5,80.5C 16.0541,76.5003 17.3875,72.8337 19.5,69.5C 20.3382,69.1583 20.6716,68.4916 20.5,67.5C 20.5569,66.391 20.8902,65.391 21.5,64.5C 22.9063,64.0269 23.573,63.0269 23.5,61.5C 23.9925,59.1815 24.9925,57.1815 26.5,55.5C 27.9063,55.0269 28.573,54.0269 28.5,52.5C 29.9336,49.9528 31.6002,47.6195 33.5,45.5C 35.5869,44.4154 36.9202,42.7488 37.5,40.5C 38.8333,39.8333 39.8333,38.8333 40.5,37.5C 40.5,36.8333 40.8333,36.5 41.5,36.5C 42.5,36.1667 43.1667,35.5 43.5,34.5C 44.5,34.1667 45.1667,33.5 45.5,32.5C 46.8726,30.7935 48.5393,29.4602 50.5,28.5C 51.1667,28.1667 51.8333,27.8333 52.5,27.5 Z"/></g>
<g><path style="opacity:0.165" fill="#c0c0c0" d="M 174.5,82.5 C 177.242,84.1807 178.909,86.1807 179.5,88.5C 177.086,87.0892 175.419,85.0892 174.5,82.5 Z"/></g>
<g><path style="opacity:0.878" fill="#969696" d="M 226.5,84.5 C 228.472,87.0836 229.472,90.0836 229.5,93.5C 227.528,90.9164 226.528,87.9164 226.5,84.5 Z"/></g>
<g><path style="opacity:0.012" fill="#dddddd" d="M 12.5,89.5 C 12.7845,91.4147 12.4511,93.0813 11.5,94.5C 11.0618,94.5654 10.7284,94.3988 10.5,94C 11.0989,92.3775 11.7656,90.8775 12.5,89.5 Z"/></g>
<g><path style="opacity:0.043" fill="#d8d8d8" d="M 58.5,96.5 C 59.9187,95.5489 61.5853,95.2155 63.5,95.5C 61.9259,96.9281 60.2592,97.2614 58.5,96.5 Z"/></g>
<g><path style="opacity:0.612" fill="#afafaf" d="M 73.5,95.5 C 76.2282,95.1706 78.5615,95.8372 80.5,97.5C 77.9327,97.2785 75.5994,96.6118 73.5,95.5 Z"/></g>
<g><path style="opacity:0.196" fill="#d2d2d2" d="M 58.5,96.5 C 57.828,97.2674 56.9947,97.9341 56,98.5C 55.6012,98.2716 55.4346,97.9382 55.5,97.5C 56.209,96.596 57.209,96.2627 58.5,96.5 Z"/></g>
<g><path style="opacity:0.01" fill="#ededed" d="M 198.5,88.5 C 201.273,92.3847 203.273,96.718 204.5,101.5C 201.71,97.5844 199.71,93.251 198.5,88.5 Z"/></g>
<g><path style="opacity:0.545" fill="#b0b0b0" d="M 11.5,95.5 C 11.2833,99.7051 10.6167,103.705 9.5,107.5C 9.08339,103.183 9.75006,99.1829 11.5,95.5 Z"/></g>
<g><path style="opacity:0.086" fill="#d0d0d0" d="M 84.5,98.5 C 86.0269,98.427 87.0269,99.0937 87.5,100.5C 85.9731,100.573 84.9731,99.9063 84.5,98.5 Z"/></g>
<g><path style="opacity:0.02" fill="#e0e0e0" d="M 48.5,99.5 C 49.1667,99.5 49.8333,99.5 50.5,99.5C 50.0269,100.906 49.0269,101.573 47.5,101.5C 47.8333,100.833 48.1667,100.167 48.5,99.5 Z"/></g>
<g><path style="opacity:0.065" fill="#e3e3e3" d="M 185.5,99.5 C 187.104,100.287 187.771,101.62 187.5,103.5C 186.326,102.486 185.66,101.153 185.5,99.5 Z"/></g>
<g><path style="opacity:0.412" fill="#909090" d="M 150.5,100.5 C 149.233,99.913 148.233,99.913 147.5,100.5C 147.709,101.086 148.043,101.586 148.5,102C 147.68,111.423 147.18,120.923 147,130.5C 146.283,129.956 145.783,129.289 145.5,128.5C 146.494,118.681 146.827,108.681 146.5,98.5C 148.38,98.2291 149.713,98.8958 150.5,100.5 Z"/></g>
<g><path style="opacity:0.549" fill="#999999" d="M 154.5,102.5 C 156.749,103.08 158.415,104.413 159.5,106.5C 157.251,105.92 155.585,104.587 154.5,102.5 Z"/></g>
<g><path style="opacity:0.086" fill="#e0e0e0" d="M 204.5,101.5 C 206.065,103.509 207.065,105.843 207.5,108.5C 205.464,106.794 204.464,104.461 204.5,101.5 Z"/></g>
<g><path style="opacity:0.012" fill="#f5f5f5" d="M 116.5,103.5 C 116.167,105.833 114.833,107.167 112.5,107.5C 113.5,105.833 114.833,104.5 116.5,103.5 Z"/></g>
<g><path style="opacity:0.004" fill="#d2d2d2" d="M 187.5,105.5 C 189.698,105.409 190.031,106.075 188.5,107.5C 187.662,107.158 187.328,106.492 187.5,105.5 Z"/></g>
<g><path style="opacity:0.012" fill="#cfcfcf" d="M 41.5,105.5 C 41.5,106.833 40.8333,107.5 39.5,107.5C 39.8333,106.5 40.5,105.833 41.5,105.5 Z"/></g>
<g><path style="opacity:0.094" fill="#eaeaea" d="M 125.5,106.5 C 126.5,106.833 127.167,107.5 127.5,108.5C 126.761,108.631 126.094,108.464 125.5,108C 124.262,107.31 124.262,106.81 125.5,106.5 Z"/></g>
<g><path style="opacity:0.051" fill="#b8b8b8" d="M 159.5,106.5 C 160.5,106.833 161.167,107.5 161.5,108.5C 160.167,108.5 159.5,107.833 159.5,106.5 Z"/></g>
<g><path style="opacity:0.024" fill="#d2d2d2" d="M 37.5,109.5 C 37.573,111.027 36.9063,112.027 35.5,112.5C 35.427,110.973 36.0937,109.973 37.5,109.5 Z"/></g>
<g><path style="opacity:0.004" fill="#c9c9c7" d="M 128.5,109.5 C 129.833,110.167 130.833,111.167 131.5,112.5C 129.5,112.5 128.5,111.5 128.5,109.5 Z"/></g>
<g><path style="opacity:0.008" fill="#d9d9d9" d="M 207.5,109.5 C 208.404,110.209 208.737,111.209 208.5,112.5C 207.733,111.828 207.066,110.995 206.5,110C 206.728,109.601 207.062,109.435 207.5,109.5 Z"/></g>
<g><path style="opacity:0.031" fill="#e8e8e8" d="M 34.5,113.5 C 34.5,114.833 33.8333,115.5 32.5,115.5C 32.8333,114.5 33.5,113.833 34.5,113.5 Z"/></g>
<g><path style="opacity:0.196" fill="#d2d2d2" d="M 90.5,101.5 C 91.1667,110.5 91.8333,119.5 92.5,128.5C 92.44,129.043 92.1067,129.376 91.5,129.5C 90.7132,128.758 90.0465,127.925 89.5,127C 89.4762,118.603 89.8095,110.103 90.5,101.5 Z"/></g>
<g><path style="opacity:0.016" fill="#dbdbdb" d="M 108.5,111.5 C 108.5,113.5 107.5,114.5 105.5,114.5C 106.167,113.167 107.167,112.167 108.5,111.5 Z"/></g>
<g><path style="opacity:0.016" fill="#e7e7e7" d="M 163.5,111.5 C 164.488,112.795 165.488,114.128 166.5,115.5C 164.088,115.306 163.088,113.973 163.5,111.5 Z"/></g>
<g><path style="opacity:0.624" fill="#8d8d8d" d="M 189.5,112.5 C 191.745,113.292 192.078,114.625 190.5,116.5C 189.566,115.432 189.232,114.099 189.5,112.5 Z"/></g>
<g><path style="opacity:0.016" fill="#f1f1f1" d="M 133.5,115.5 C 134.5,115.833 135.167,116.5 135.5,117.5C 134.167,117.5 133.5,116.833 133.5,115.5 Z"/></g>
<g><path style="opacity:0.004" fill="#e9e9e9" d="M 135.5,117.5 C 136.5,117.833 137.167,118.5 137.5,119.5C 136.167,119.5 135.5,118.833 135.5,117.5 Z"/></g>
<g><path style="opacity:0.051" fill="#bebebe" d="M 102.5,118.5 C 102.027,119.906 101.027,120.573 99.5,120.5C 99.9731,119.094 100.973,118.427 102.5,118.5 Z"/></g>
<g><path style="opacity:0.009" fill="#d9d9d9" d="M 209.5,116.5 C 211.054,120.567 211.72,124.9 211.5,129.5C 209.946,125.433 209.28,121.1 209.5,116.5 Z"/></g>
<g><path style="opacity:0.031" fill="#e1e1e1" d="M 30.5,119.5 C 30.4456,121.632 29.4456,122.965 27.5,123.5C 28.0256,121.77 29.0256,120.436 30.5,119.5 Z"/></g>
<g><path style="opacity:0.02" fill="#e0e0e0" d="M 169.5,121.5 C 170.404,122.209 170.737,123.209 170.5,124.5C 168.519,123.895 168.185,122.895 169.5,121.5 Z"/></g>
<g><path style="opacity:0.008" fill="#efefef" d="M 143.5,126.5 C 144.5,126.833 145.167,127.5 145.5,128.5C 144.167,128.5 143.5,127.833 143.5,126.5 Z"/></g>
<g><path style="opacity:0.516" fill="#969696" d="M 57.5,129.5 C 50.1667,129.5 42.8333,129.5 35.5,129.5C 35.7828,128.711 36.2828,128.044 37,127.5C 43.5602,128.393 50.0602,128.393 56.5,127.5C 57.2975,127.957 57.6309,128.624 57.5,129.5 Z"/></g>
<g><path style="opacity:0.455" fill="#9b9b9b" d="M 165.5,130.5 C 163.833,129.167 162.167,129.167 160.5,130.5C 159.262,130.19 159.262,129.69 160.5,129C 161.333,128.833 162.167,128.667 163,128.5C 164.376,128.684 165.209,129.351 165.5,130.5 Z"/></g>
<g><path style="opacity:0.991" fill="#2d2d2d" d="M 165.5,130.5 C 166.226,133.056 165.226,135.056 162.5,136.5C 160.376,134.799 159.709,132.799 160.5,130.5C 162.167,129.167 163.833,129.167 165.5,130.5 Z"/></g>
<g><path style="opacity:0.573" fill="#8a8a8a" d="M 35.5,129.5 C 36.5676,130.434 37.901,130.768 39.5,130.5C 39.5,130.833 39.5,131.167 39.5,131.5C 37.8008,131.34 36.1341,131.506 34.5,132C 33.2949,133.376 31.9616,134.542 30.5,135.5C 30.6716,134.508 30.3382,133.842 29.5,133.5C 30.4647,130.68 32.4647,129.347 35.5,129.5 Z"/></g>
<g><path style="opacity:1" fill="#767676" d="M 57.5,129.5 C 58.1667,130.5 58.8333,131.5 59.5,132.5C 59.7512,134.17 60.4178,135.67 61.5,137C 60.0715,137.579 58.7382,137.412 57.5,136.5C 56.7005,134.427 55.3671,132.76 53.5,131.5C 55.7564,133.097 57.0897,132.431 57.5,129.5 Z"/></g>
<g><path style="opacity:0.004" fill="#f2f3f2" d="M 59.5,131.5 C 60.8333,132.167 60.8333,132.167 59.5,131.5 Z"/></g>
<g><path style="opacity:0.602" fill="#727272" d="M 44.5,130.5 C 44.5285,132.793 44.1952,135.293 43.5,138C 43.6083,139.681 44.2749,140.848 45.5,141.5C 44.8783,142.627 44.045,143.627 43,144.5C 42.8333,142.167 42.6667,139.833 42.5,137.5C 42.5286,134.731 43.1952,132.397 44.5,130.5 Z"/></g>
<g><path style="opacity:0.166" fill="#b0b0b0" d="M 26.5,128.5 C 26.1805,133.363 26.5139,138.03 27.5,142.5C 27.5,143.167 27.5,143.833 27.5,144.5C 26.8333,144.5 26.5,144.833 26.5,145.5C 25.1667,139.833 25.1667,134.167 26.5,128.5 Z"/></g>
<g><path style="opacity:0.024" fill="#f1f2f1" d="M 82.5,136.5 C 81.8333,135.167 81.8333,135.167 82.5,136.5 Z"/></g>
<g><path style="opacity:0.329" fill="#919191" d="M 88.5,140.5 C 87.791,139.596 86.791,139.263 85.5,139.5C 85.7845,137.585 85.4511,135.919 84.5,134.5C 84.4614,133.244 84.9614,132.244 86,131.5C 86.4966,133.81 86.6633,136.143 86.5,138.5C 87.675,138.281 88.675,138.614 89.5,139.5C 89.3764,140.107 89.0431,140.44 88.5,140.5 Z"/></g>
<g><path style="opacity:0.031" fill="#ebeceb" d="M 57.5,136.5 C 56.8333,137.167 56.8333,137.167 57.5,136.5 Z"/></g>
<g><path style="opacity:0.573" fill="#a6a6a6" d="M 230.5,135.5 C 231.043,135.56 231.376,135.893 231.5,136.5C 230.95,138.657 230.283,140.657 229.5,142.5C 229.198,139.941 229.532,137.607 230.5,135.5 Z"/></g>
<g><path style="opacity:0.982" fill="#242424" d="M 35.5,129.5 C 42.8333,129.5 50.1667,129.5 57.5,129.5C 57.0897,132.431 55.7564,133.097 53.5,131.5C 53.1667,131.5 52.8333,131.5 52.5,131.5C 51.4324,130.566 50.099,130.232 48.5,130.5C 47.1667,131.833 45.8333,131.833 44.5,130.5C 43.1952,132.397 42.5286,134.731 42.5,137.5C 42.6667,139.833 42.8333,142.167 43,144.5C 44.045,143.627 44.8783,142.627 45.5,141.5C 46.8333,141.5 47.5,142.167 47.5,143.5C 46.0877,145.998 44.9211,148.664 44,151.5C 43.8598,153.521 43.6932,155.355 43.5,157C 44.9101,158.372 46.5767,159.205 48.5,159.5C 44.1667,160.833 39.8333,160.833 35.5,159.5C 36.2216,159.082 36.7216,158.416 37,157.5C 36.9959,148.701 37.8292,140.035 39.5,131.5C 40.8333,131.167 40.8333,130.833 39.5,130.5C 37.901,130.768 36.5676,130.434 35.5,129.5 Z"/></g>
<g><path style="opacity:0.082" fill="#dedede" d="M 48.5,130.5 C 50.099,130.232 51.4324,130.566 52.5,131.5C 50.9988,132.443 49.6654,132.109 48.5,130.5 Z"/></g>
<g><path style="opacity:0.008" fill="#ecedec" d="M 112.5,137.5 C 113.833,138.167 113.833,138.167 112.5,137.5 Z"/></g>
<g><path style="opacity:0.373" fill="#999999" d="M 121.5,139.5 C 119.784,139.629 118.117,139.962 116.5,140.5C 117.879,138.403 119.545,138.07 121.5,139.5 Z"/></g>
<g><path style="opacity:0.024" fill="#e9eae9" d="M 142.5,139.5 C 141.833,138.167 141.833,138.167 142.5,139.5 Z"/></g>
<g><path style="opacity:0.016" fill="#edeeed" d="M 146.5,138.5 C 147.833,139.167 147.833,139.167 146.5,138.5 Z"/></g>
<g><path style="opacity:0.412" fill="#b7b7b7" d="M 164.5,139.5 C 163.167,139.5 161.833,139.5 160.5,139.5C 162.032,137.219 163.366,137.219 164.5,139.5 Z"/></g>
<g><path style="opacity:0.482" fill="#9c9c9c" d="M 179.5,140.5 C 177.052,139.527 174.385,139.194 171.5,139.5C 174.193,137.518 177.193,137.518 180.5,139.5C 180.376,140.107 180.043,140.44 179.5,140.5 Z"/></g>
<g><path style="opacity:0.349" fill="#afafaf" d="M 194.5,139.5 C 191.721,139.279 189.054,139.612 186.5,140.5C 187.334,139.252 188.667,138.585 190.5,138.5C 192.045,138.511 193.378,138.844 194.5,139.5 Z"/></g>
<g><path style="opacity:0.157" fill="#adadad" d="M 200.5,139.5 C 203.687,138.194 207.02,138.194 210.5,139.5C 210.376,140.107 210.043,140.44 209.5,140.5C 206.713,139.523 203.713,139.19 200.5,139.5 Z"/></g>
<g><path style="opacity:0.027" fill="#eeefee" d="M 61.5,140.5 C 60.8333,139.167 60.8333,139.167 61.5,140.5 Z"/></g>
<g><path style="opacity:0.012" fill="#eeefee" d="M 69.5,140.5 C 68.8333,139.167 68.8333,139.167 69.5,140.5 Z"/></g>
<g><path style="opacity:0.925" fill="#656565" d="M 47.5,143.5 C 47.5,142.167 46.8333,141.5 45.5,141.5C 49.4817,136.079 53.1484,136.246 56.5,142C 54.7825,146.746 53.7825,146.579 53.5,141.5C 51.1417,141.253 49.1417,141.919 47.5,143.5 Z"/></g>
<g><path style="opacity:0.982" fill="#3a3a3a" d="M 112.5,138.5 C 113.185,140.414 113.685,142.414 114,144.5C 114.608,142.934 115.442,141.6 116.5,140.5C 118.117,139.962 119.784,139.629 121.5,139.5C 121.5,141.167 121.5,142.833 121.5,144.5C 121.068,145.71 120.401,146.71 119.5,147.5C 118.833,146.167 118.167,144.833 117.5,143.5C 116.5,144.167 115.5,144.833 114.5,145.5C 112.616,145.288 111.283,144.288 110.5,142.5C 109.893,142.624 109.56,142.957 109.5,143.5C 109.167,143.5 108.833,143.5 108.5,143.5C 107.778,143.918 107.278,144.584 107,145.5C 106.667,144.833 106.333,144.167 106,143.5C 104.968,145.027 103.801,146.36 102.5,147.5C 102.223,145.272 101.223,143.605 99.5,142.5C 97.8102,142.856 96.8102,143.856 96.5,145.5C 95.6618,145.842 95.3284,146.508 95.5,147.5C 94.7321,146.737 94.2321,145.737 94,144.5C 93.6174,145.056 93.1174,145.389 92.5,145.5C 93.9732,139.76 97.6399,137.593 103.5,139C 105,139.833 106.167,141 107,142.5C 108.147,140.181 109.981,138.848 112.5,138.5 Z"/></g>
<g><path style="opacity:0.962" fill="#727272" d="M 194.5,139.5 C 196.446,140.035 197.446,141.368 197.5,143.5C 196.5,144.167 195.5,144.833 194.5,145.5C 194.5,143.5 194.5,141.5 194.5,139.5 Z"/></g>
<g><path style="opacity:0.373" fill="#a2a2a2" d="M 136.5,139.5 C 137.906,139.973 138.573,140.973 138.5,142.5C 137.094,142.027 136.427,141.027 136.5,139.5 Z"/></g>
<g><path style="opacity:0.194" fill="#adadad" d="M 80.5,139.5 C 82.3864,145.208 83.0531,151.208 82.5,157.5C 82.0757,151.799 81.0757,146.133 79.5,140.5C 79.6236,139.893 79.9569,139.56 80.5,139.5 Z"/></g>
<g><path style="opacity:0.792" fill="#454545" d="M 152.5,147.5 C 151.833,147.5 151.5,147.167 151.5,146.5C 151.217,145.711 150.717,145.044 150,144.5C 149.241,146.063 148.074,147.063 146.5,147.5C 145.612,144.946 145.279,142.279 145.5,139.5C 145.833,139.5 146.167,139.5 146.5,139.5C 146.461,140.756 146.961,141.756 148,142.5C 150.775,137.66 153.608,137.493 156.5,142C 155.968,144.463 154.634,146.297 152.5,147.5 Z"/></g>
<g><path style="opacity:0.974" fill="#181818" d="M 160.5,139.5 C 161.833,139.5 163.167,139.5 164.5,139.5C 164.5,139.833 164.5,140.167 164.5,140.5C 164.179,146.026 164.512,151.36 165.5,156.5C 167.105,155.031 167.605,155.365 167,157.5C 164.992,160.139 163.159,160.139 161.5,157.5C 162.045,151.537 161.379,145.87 159.5,140.5C 159.5,139.833 159.833,139.5 160.5,139.5 Z"/></g>
<g><path style="opacity:0.336" fill="#a0a0a0" d="M 164.5,140.5 C 165.193,144.565 165.86,148.732 166.5,153C 165.663,154.011 165.33,155.178 165.5,156.5C 164.512,151.36 164.179,146.026 164.5,140.5 Z"/></g>
<g><path style="opacity:0.008" fill="#d3d3d3" d="M 205.5,141.5 C 204.5,141.5 203.5,141.5 202.5,141.5C 202.5,142.5 202.5,143.5 202.5,144.5C 200.915,143.998 200.415,142.998 201,141.5C 202.616,140.199 204.116,140.199 205.5,141.5 Z"/></g>
<g><path style="opacity:0.051" fill="#e4e4e4" d="M 61.5,141.5 C 61.3893,142.117 61.056,142.617 60.5,143C 61.4158,143.278 62.0825,143.778 62.5,144.5C 61.5,144.5 60.5,144.5 59.5,144.5C 59.2852,142.821 59.9519,141.821 61.5,141.5 Z"/></g>
<g><path style="opacity:0.992" fill="#262626" d="M 84.5,134.5 C 85.4511,135.919 85.7845,137.585 85.5,139.5C 86.791,139.263 87.791,139.596 88.5,140.5C 87.2872,142.892 86.6205,145.559 86.5,148.5C 86.5034,151.025 86.8367,153.359 87.5,155.5C 88.1667,155.5 88.5,155.833 88.5,156.5C 86.6989,159.799 84.6989,160.132 82.5,157.5C 83.0531,151.208 82.3864,145.208 80.5,139.5C 81.1667,138.5 81.8333,137.5 82.5,136.5C 83.5,136.167 84.1667,135.5 84.5,134.5 Z"/></g>
<g><path style="opacity:0.38" fill="#999999" d="M 121.5,139.5 C 122.391,140.11 123.391,140.443 124.5,140.5C 123.89,141.391 123.557,142.391 123.5,143.5C 123.5,143.833 123.5,144.167 123.5,144.5C 122.833,144.5 122.167,144.5 121.5,144.5C 121.5,142.833 121.5,141.167 121.5,139.5 Z"/></g>
<g><path style="opacity:0.27" fill="#b5b5b5" d="M 159.5,140.5 C 161.379,145.87 162.045,151.537 161.5,157.5C 160.674,152.684 160.174,147.684 160,142.5C 159.107,143.711 158.274,143.711 157.5,142.5C 157.855,141.478 158.522,140.811 159.5,140.5 Z"/></g>
<g><path style="opacity:0.194" fill="#c3c3c3" d="M 71.5,139.5 C 72.8845,138.199 74.3845,138.199 76,139.5C 76.4994,144.823 76.666,150.156 76.5,155.5C 79.962,155.807 79.962,156.807 76.5,158.5C 76.6107,157.883 76.944,157.383 77.5,157C 75.7407,151.792 74.9074,146.292 75,140.5C 73.9887,139.663 72.8221,139.33 71.5,139.5 Z"/></g>
<g><path style="opacity:0.059" fill="#b4b4b4" d="M 117.5,143.5 C 118.167,144.833 118.833,146.167 119.5,147.5C 119.217,148.289 118.717,148.956 118,149.5C 117.505,147.527 117.338,145.527 117.5,143.5 Z"/></g>
<g><path style="opacity:0.995" fill="#343434" d="M 200.5,139.5 C 203.713,139.19 206.713,139.523 209.5,140.5C 209.131,144.013 207.798,144.347 205.5,141.5C 204.116,140.199 202.616,140.199 201,141.5C 200.415,142.998 200.915,143.998 202.5,144.5C 203.995,144.989 205.329,145.655 206.5,146.5C 206.833,147.5 207.5,148.167 208.5,148.5C 209.167,148.5 209.5,148.833 209.5,149.5C 209.721,152.279 209.388,154.946 208.5,157.5C 204.865,160.065 201.199,160.065 197.5,157.5C 198.434,156.432 198.768,155.099 198.5,153.5C 198.5,152.833 198.833,152.5 199.5,152.5C 200.827,155.657 203.16,156.824 206.5,156C 206.957,155.586 207.291,155.086 207.5,154.5C 204.754,152.377 201.921,150.377 199,148.5C 198.648,146.753 198.148,145.086 197.5,143.5C 198.143,141.924 199.143,140.59 200.5,139.5 Z"/></g>
<g><path style="opacity:0.008" fill="#eeefec" d="M 207.5,144.5 C 208.833,145.167 208.833,145.167 207.5,144.5 Z"/></g>
<g><path style="opacity:0.02" fill="#e1e2df" d="M 209.5,144.5 C 210.833,145.167 210.833,145.167 209.5,144.5 Z"/></g>
<g><path style="opacity:0.263" fill="#c1c1c1" d="M 229.5,143.5 C 229.938,143.435 230.272,143.601 230.5,144C 229.934,144.995 229.267,145.828 228.5,146.5C 228.263,145.209 228.596,144.209 229.5,143.5 Z"/></g>
<g><path style="opacity:0.863" fill="#858585" d="M 67.5,142.5 C 67.8333,142.5 68.1667,142.5 68.5,142.5C 68.369,143.239 68.5357,143.906 69,144.5C 70.0113,143.663 71.1779,143.33 72.5,143.5C 72.5,148.5 72.5,153.5 72.5,158.5C 71.6745,154.018 71.1745,149.351 71,144.5C 69.9609,145.71 68.7942,146.71 67.5,147.5C 67.0825,146.778 66.4158,146.278 65.5,146C 66.056,145.617 66.3893,145.117 66.5,144.5C 67.3382,144.158 67.6716,143.492 67.5,142.5 Z"/></g>
<g><path style="opacity:0.993" fill="#171717" d="M 71.5,139.5 C 72.8221,139.33 73.9887,139.663 75,140.5C 74.9074,146.292 75.7407,151.792 77.5,157C 76.944,157.383 76.6107,157.883 76.5,158.5C 75.1667,159.833 73.8333,159.833 72.5,158.5C 72.5,153.5 72.5,148.5 72.5,143.5C 71.1779,143.33 70.0113,143.663 69,144.5C 68.5357,143.906 68.369,143.239 68.5,142.5C 68.8333,141.833 69.1667,141.167 69.5,140.5C 70.1667,140.167 70.8333,139.833 71.5,139.5 Z"/></g>
<g><path style="opacity:0.081" fill="#d0d0d0" d="M 108.5,143.5 C 108.833,143.5 109.167,143.5 109.5,143.5C 108.892,148.944 109.558,153.944 111.5,158.5C 110.791,159.404 109.791,159.737 108.5,159.5C 108.5,154.167 108.5,148.833 108.5,143.5 Z"/></g>
<g><path style="opacity:0.912" fill="#626262" d="M 191.5,145.5 C 192.167,145.833 192.833,146.167 193.5,146.5C 192.527,149.135 190.86,151.135 188.5,152.5C 187.449,151.778 186.782,150.778 186.5,149.5C 189.344,149.657 191.011,148.324 191.5,145.5 Z"/></g>
<g><path style="opacity:0.016" fill="#edebec" d="M 26.5,145.5 C 26.8333,145.5 27.1667,145.5 27.5,145.5C 28.3382,145.842 28.6716,146.508 28.5,147.5C 27.6618,147.842 27.3284,148.508 27.5,149.5C 26.5655,148.432 26.2322,147.099 26.5,145.5 Z"/></g>
<g><path style="opacity:0.282" fill="#929292" d="M 124.5,143.5 C 125.833,149.5 125.833,155.5 124.5,161.5C 124.786,155.741 124.452,150.075 123.5,144.5C 124.167,144.5 124.5,144.167 124.5,143.5 Z"/></g>
<g><path style="opacity:0.008" fill="#c8c8c6" d="M 206.5,146.5 C 207.833,146.5 208.5,147.167 208.5,148.5C 207.5,148.167 206.833,147.5 206.5,146.5 Z"/></g>
<g><path style="opacity:0.259" fill="#a5a5a5" d="M 151.5,146.5 C 151.5,147.167 151.833,147.5 152.5,147.5C 152.217,148.289 151.717,148.956 151,149.5C 150.26,148.251 150.427,147.251 151.5,146.5 Z"/></g>
<g><path style="opacity:0.984" fill="#707070" d="M 99.5,142.5 C 101.223,143.605 102.223,145.272 102.5,147.5C 100.578,149.687 98.9117,152.02 97.5,154.5C 95.8372,152.562 95.1706,150.228 95.5,147.5C 95.3284,146.508 95.6618,145.842 96.5,145.5C 96.7355,151.582 98.0688,151.416 100.5,145C 100.257,144.098 99.9234,143.265 99.5,142.5 Z"/></g>
<g><path style="opacity:0.541" fill="#767676" d="M 114.5,146.5 C 113.974,150.312 113.307,153.979 112.5,157.5C 112.335,154.15 112.502,150.817 113,147.5C 113.383,146.944 113.883,146.611 114.5,146.5 Z"/></g>
<g><path style="opacity:0.971" fill="#323232" d="M 171.5,139.5 C 174.385,139.194 177.052,139.527 179.5,140.5C 179.719,141.675 179.386,142.675 178.5,143.5C 177.482,142.807 176.482,142.141 175.5,141.5C 174.5,140.167 173.5,140.167 172.5,141.5C 171.167,141.833 171.167,142.167 172.5,142.5C 174.131,144.643 176.131,146.31 178.5,147.5C 178.427,149.027 179.094,150.027 180.5,150.5C 180.5,151.833 180.5,153.167 180.5,154.5C 180.5,154.833 180.5,155.167 180.5,155.5C 179.883,155.611 179.383,155.944 179,156.5C 178.768,155.263 178.268,154.263 177.5,153.5C 170.529,151.344 167.529,146.844 168.5,140C 169.448,139.517 170.448,139.351 171.5,139.5 Z"/></g>
<g><path style="opacity:0.161" fill="#c7c7c7" d="M 175.5,141.5 C 174.391,141.557 173.391,141.89 172.5,142.5C 172.5,142.167 172.5,141.833 172.5,141.5C 173.5,140.167 174.5,140.167 175.5,141.5 Z"/></g>
<g><path style="opacity:0.039" fill="#c4c4c4" d="M 32.5,149.5 C 34.0269,149.427 35.0269,150.094 35.5,151.5C 33.9731,151.573 32.9731,150.906 32.5,149.5 Z"/></g>
<g><path style="opacity:0.384" fill="#9a9a9a" d="M 178.5,147.5 C 179.906,147.973 180.573,148.973 180.5,150.5C 179.094,150.027 178.427,149.027 178.5,147.5 Z"/></g>
<g><path style="opacity:0.997" fill="#1c1c1c" d="M 95.5,147.5 C 95.1706,150.228 95.8372,152.562 97.5,154.5C 99.5061,155.485 101.173,156.818 102.5,158.5C 98.2759,160.239 94.6092,159.406 91.5,156C 92.056,155.617 92.3893,155.117 92.5,154.5C 92.5,151.833 92.5,149.167 92.5,146.5C 92.5,146.167 92.5,145.833 92.5,145.5C 93.1174,145.389 93.6174,145.056 94,144.5C 94.2321,145.737 94.7321,146.737 95.5,147.5 Z"/></g>
<g><path style="opacity:0.012" fill="#f4f4f4" d="M 182.5,149.5 C 182.5,150.5 182.5,151.5 182.5,152.5C 181.833,153.167 181.167,153.833 180.5,154.5C 180.5,153.167 180.5,151.833 180.5,150.5C 181.167,150.167 181.833,149.833 182.5,149.5 Z"/></g>
<g><path style="opacity:0.999" fill="#212121" d="M 194.5,139.5 C 194.5,141.5 194.5,143.5 194.5,145.5C 194.5,146.167 194.167,146.5 193.5,146.5C 192.833,146.167 192.167,145.833 191.5,145.5C 191.206,142.519 189.872,141.852 187.5,143.5C 186.596,144.209 186.263,145.209 186.5,146.5C 187.833,147.5 187.833,148.5 186.5,149.5C 186.782,150.778 187.449,151.778 188.5,152.5C 188.694,154.912 190.027,155.912 192.5,155.5C 193.492,155.328 194.158,155.662 194.5,156.5C 194.167,157.167 193.833,157.833 193.5,158.5C 193.167,158.5 192.833,158.5 192.5,158.5C 189.763,158.599 187.096,158.265 184.5,157.5C 183.761,157.631 183.094,157.464 182.5,157C 182.966,155.701 182.966,154.201 182.5,152.5C 182.5,151.5 182.5,150.5 182.5,149.5C 182.389,148.883 182.056,148.383 181.5,148C 182.818,145.176 184.485,142.676 186.5,140.5C 189.054,139.612 191.721,139.279 194.5,139.5 Z"/></g>
<g><path style="opacity:0.18" fill="#c8c8c8" d="M 187.5,143.5 C 188.815,144.895 188.481,145.895 186.5,146.5C 186.263,145.209 186.596,144.209 187.5,143.5 Z"/></g>
<g><path style="opacity:0.463" fill="#434343" d="M 29.5,133.5 C 30.3382,133.842 30.6716,134.508 30.5,135.5C 30.1176,140.362 30.7843,145.028 32.5,149.5C 32.9731,150.906 33.9731,151.573 35.5,151.5C 34.791,152.404 33.791,152.737 32.5,152.5C 29.676,152.011 28.3426,150.344 28.5,147.5C 28.6716,146.508 28.3382,145.842 27.5,145.5C 27.5,145.167 27.5,144.833 27.5,144.5C 27.5,143.833 27.5,143.167 27.5,142.5C 27.0679,139.123 27.7345,136.123 29.5,133.5 Z"/></g>
<g><path style="opacity:0.995" fill="#313131" d="M 67.5,142.5 C 66.6618,142.842 66.3284,143.508 66.5,144.5C 66.3893,145.117 66.056,145.617 65.5,146C 66.4158,146.278 67.0825,146.778 67.5,147.5C 66.8313,150.836 66.8313,154.003 67.5,157C 64.6451,160.479 62.6451,160.145 61.5,156C 61.9502,152.786 62.2836,148.953 62.5,144.5C 62.0825,143.778 61.4158,143.278 60.5,143C 61.056,142.617 61.3893,142.117 61.5,141.5C 61.5,141.167 61.5,140.833 61.5,140.5C 64.4813,137.645 66.4813,138.311 67.5,142.5 Z"/></g>
<g><path style="opacity:0.997" fill="#0d0d0d" d="M 114.5,145.5 C 114.5,145.833 114.5,146.167 114.5,146.5C 113.883,146.611 113.383,146.944 113,147.5C 112.502,150.817 112.335,154.15 112.5,157.5C 112.5,158.167 112.167,158.5 111.5,158.5C 109.558,153.944 108.892,148.944 109.5,143.5C 109.56,142.957 109.893,142.624 110.5,142.5C 111.283,144.288 112.616,145.288 114.5,145.5 Z"/></g>
<g><path style="opacity:0.208" fill="#bebebe" d="M 199.5,152.5 C 198.833,152.5 198.5,152.833 198.5,153.5C 198.167,153.5 197.833,153.5 197.5,153.5C 197.711,151.576 198.377,151.243 199.5,152.5 Z"/></g>
<g><path style="opacity:0.013" fill="#dbdbdb" d="M 228.5,148.5 C 228.938,148.435 229.272,148.601 229.5,149C 228.751,150.734 228.251,152.567 228,154.5C 227.617,155.056 227.117,155.389 226.5,155.5C 226.721,152.933 227.388,150.599 228.5,148.5 Z"/></g>
<g><path style="opacity:0.047" fill="#e2e2e2" d="M 35.5,151.5 C 36.7514,152.472 36.418,153.139 34.5,153.5C 33.5836,153.457 32.9169,153.124 32.5,152.5C 33.791,152.737 34.791,152.404 35.5,151.5 Z"/></g>
<g><path style="opacity:0.993" fill="#2d2d2d" d="M 145.5,139.5 C 145.279,142.279 145.612,144.946 146.5,147.5C 146.347,150.622 146.681,153.622 147.5,156.5C 146.084,158.139 144.417,158.973 142.5,159C 142.608,153.766 142.275,148.6 141.5,143.5C 140.833,143.5 140.5,143.167 140.5,142.5C 140.782,141.222 141.449,140.222 142.5,139.5C 143.652,138.375 144.652,138.375 145.5,139.5 Z"/></g>
<g><path style="opacity:0.004" fill="#f1f2f1" d="M 171.5,152.5 C 172.833,153.167 172.833,153.167 171.5,152.5 Z"/></g>
<g><path style="opacity:0.137" fill="#aeaeae" d="M 92.5,146.5 C 92.5,149.167 92.5,151.833 92.5,154.5C 91.1667,155.167 89.8333,155.833 88.5,156.5C 88.5,155.833 88.1667,155.5 87.5,155.5C 88.1834,153.824 89.5168,153.157 91.5,153.5C 91.1984,150.941 91.5318,148.607 92.5,146.5 Z"/></g>
<g><path style="opacity:0.915" fill="#4e4e4e" d="M 138.5,142.5 C 139.167,142.5 139.833,142.5 140.5,142.5C 140.5,143.167 140.833,143.5 141.5,143.5C 139.59,144.684 139.257,146.184 140.5,148C 139.852,152.151 137.852,155.318 134.5,157.5C 134.672,156.508 134.338,155.842 133.5,155.5C 133.796,153.597 134.463,151.93 135.5,150.5C 135.202,153.336 135.869,153.836 137.5,152C 137.167,151.667 136.833,151.333 136.5,151C 138.179,148.435 138.846,145.602 138.5,142.5 Z"/></g>
<g><path style="opacity:0.525" fill="#afafad" d="M 209.5,149.5 C 210.167,149.5 210.833,149.5 211.5,149.5C 211.296,152.518 210.963,155.518 210.5,158.5C 210.167,158.5 209.833,158.5 209.5,158.5C 209.5,157.833 209.167,157.5 208.5,157.5C 209.388,154.946 209.721,152.279 209.5,149.5 Z"/></g>
<g><path style="opacity:0.91" fill="#6b6b6b" d="M 102.5,158.5 C 101.173,156.818 99.5061,155.485 97.5,154.5C 98.9305,154.421 100.264,154.754 101.5,155.5C 103.542,153.588 105.542,153.421 107.5,155C 105.677,155.997 104.01,157.164 102.5,158.5 Z"/></g>
<g><path style="opacity:0.991" fill="#626262" d="M 171.5,153.5 C 171.5,154.833 172.167,155.5 173.5,155.5C 174.5,156.833 175.5,156.833 176.5,155.5C 177.338,155.158 177.672,154.492 177.5,153.5C 178.268,154.263 178.768,155.263 179,156.5C 179.383,155.944 179.883,155.611 180.5,155.5C 180.426,157.411 179.426,158.578 177.5,159C 170.311,160.975 167.644,158.475 169.5,151.5C 170.182,152.243 170.849,152.909 171.5,153.5 Z"/></g>
<g><path style="opacity:0.004" fill="#f2f3f2" d="M 176.5,155.5 C 175.833,154.167 175.833,154.167 176.5,155.5 Z"/></g>
<g><path style="opacity:0.027" fill="#eaebea" d="M 173.5,154.5 C 174.833,155.167 174.833,155.167 173.5,154.5 Z"/></g>
<g><path style="opacity:0.639" fill="#7a7a7a" d="M 197.5,153.5 C 196.833,154.833 195.833,155.833 194.5,156.5C 194.158,155.662 193.492,155.328 192.5,155.5C 193.934,153.622 195.601,152.955 197.5,153.5 Z"/></g>
<g><path style="opacity:0.986" fill="#535353" d="M 57.5,160.5 C 57.7148,158.821 57.0481,157.821 55.5,157.5C 57.168,155.66 58.668,153.66 60,151.5C 60.859,155.071 60.0257,158.071 57.5,160.5 Z"/></g>
<g><path style="opacity:0.027" fill="#eff0ef" d="M 197.5,157.5 C 196.833,156.167 196.833,156.167 197.5,157.5 Z"/></g>
<g><path style="opacity:0.991" fill="#1b1b1b" d="M 128.5,139.5 C 128.354,144.137 129.021,144.47 130.5,140.5C 132.249,138.469 134.249,138.135 136.5,139.5C 136.427,141.027 137.094,142.027 138.5,142.5C 138.846,145.602 138.179,148.435 136.5,151C 136.833,151.333 137.167,151.667 137.5,152C 135.869,153.836 135.202,153.336 135.5,150.5C 135.241,147.728 134.241,145.395 132.5,143.5C 130.973,143.427 129.973,144.094 129.5,145.5C 129.5,148.833 129.5,152.167 129.5,155.5C 130.833,155.5 132.167,155.5 133.5,155.5C 134.338,155.842 134.672,156.508 134.5,157.5C 134.5,158.167 134.167,158.5 133.5,158.5C 131.833,158.5 130.167,158.5 128.5,158.5C 128.185,162.371 128.518,166.038 129.5,169.5C 129.5,170.833 128.833,171.5 127.5,171.5C 127.167,171.5 126.833,171.5 126.5,171.5C 125.167,171.5 124.5,170.833 124.5,169.5C 124.5,166.833 124.5,164.167 124.5,161.5C 125.833,155.5 125.833,149.5 124.5,143.5C 124.167,143.5 123.833,143.5 123.5,143.5C 123.557,142.391 123.89,141.391 124.5,140.5C 125.538,138.481 126.872,138.147 128.5,139.5 Z"/></g>
<g><path style="opacity:0.004" fill="#cfcfcf" d="M 132.5,143.5 C 132.027,144.906 131.027,145.573 129.5,145.5C 129.973,144.094 130.973,143.427 132.5,143.5 Z"/></g>
<g><path style="opacity:0.224" fill="#bfbfbf" d="M 128.5,139.5 C 129.167,139.833 129.833,140.167 130.5,140.5C 129.021,144.47 128.354,144.137 128.5,139.5 Z"/></g>
<g><path style="opacity:0.773" fill="#828282" d="M 55.5,157.5 C 54.3646,159.213 52.698,159.88 50.5,159.5C 51.9303,158.463 53.597,157.796 55.5,157.5 Z"/></g>
<g><path style="opacity:0.992" fill="#030303" d="M 55.5,157.5 C 57.0481,157.821 57.7148,158.821 57.5,160.5C 54.6146,160.806 51.9479,160.473 49.5,159.5C 49.8333,159.5 50.1667,159.5 50.5,159.5C 52.698,159.88 54.3646,159.213 55.5,157.5 Z"/></g>
<g><path style="opacity:0.51" fill="#9c9c9c" d="M 184.5,157.5 C 187.096,158.265 189.763,158.599 192.5,158.5C 191.551,159.152 190.385,159.486 189,159.5C 186.992,159.693 185.492,159.026 184.5,157.5 Z"/></g>
<g><path style="opacity:0.012" fill="#f2f3f2" d="M 193.5,158.5 C 194.833,159.167 194.833,159.167 193.5,158.5 Z"/></g>
<g><path style="opacity:0.239" fill="#aeaeae" d="M 133.5,158.5 C 132.432,159.434 131.099,159.768 129.5,159.5C 129.5,162.833 129.5,166.167 129.5,169.5C 128.518,166.038 128.185,162.371 128.5,158.5C 130.167,158.5 131.833,158.5 133.5,158.5 Z"/></g>
<g><path style="opacity:0.047" fill="#d5d5d5" d="M 226.5,156.5 C 226.938,156.435 227.272,156.601 227.5,157C 226.771,159.058 225.771,160.891 224.5,162.5C 224.595,160.214 225.262,158.214 226.5,156.5 Z"/></g>
<g><path style="opacity:0.059" fill="#e8e7e8" d="M 13.5,155.5 C 14.6118,157.599 15.2785,159.933 15.5,162.5C 14.1319,160.582 13.1319,158.415 12.5,156C 12.7284,155.601 13.0618,155.435 13.5,155.5 Z"/></g>
<g><path style="opacity:0.598" fill="#808080" d="M 35.5,159.5 C 39.8333,160.833 44.1667,160.833 48.5,159.5C 48.8333,158.167 49.1667,158.167 49.5,159.5C 51.9479,160.473 54.6146,160.806 57.5,160.5C 57.631,161.239 57.4643,161.906 57,162.5C 49.9464,161.823 42.7797,161.823 35.5,162.5C 33.185,161.579 33.0183,160.246 35,158.5C 35.3988,158.728 35.5654,159.062 35.5,159.5 Z"/></g>
<g><path style="opacity:0.004" fill="#eae8e8" d="M 16.5,164.5 C 17.5375,165.93 18.2041,167.597 18.5,169.5C 16.7868,168.365 16.1201,166.698 16.5,164.5 Z"/></g>
<g><path style="opacity:0.012" fill="#dcdcdd" d="M 223.5,165.5 C 223.611,166.117 223.944,166.617 224.5,167C 223.603,169.311 222.27,171.144 220.5,172.5C 221.323,170.013 222.323,167.679 223.5,165.5 Z"/></g>
<g><path style="opacity:0.878" fill="#959595" d="M 129.5,169.5 C 131.728,170.322 132.395,171.655 131.5,173.5C 129.974,173.006 128.641,172.339 127.5,171.5C 128.833,171.5 129.5,170.833 129.5,169.5 Z"/></g>
<g><path style="opacity:0.514" fill="#aaaaaa" d="M 208.5,165.5 C 208.59,168.152 207.924,170.485 206.5,172.5C 206.062,172.565 205.728,172.399 205.5,172C 206.422,169.706 207.422,167.539 208.5,165.5 Z"/></g>
<g><path style="opacity:0.467" fill="#9a9a9a" d="M 124.5,169.5 C 124.5,170.833 125.167,171.5 126.5,171.5C 126.013,172.473 125.513,173.473 125,174.5C 123.992,174.018 122.825,173.852 121.5,174C 122.053,172.122 123.053,170.622 124.5,169.5 Z"/></g>
<g><path style="opacity:0.004" fill="#efefeb" d="M 19.5,172.5 C 20.6737,173.514 21.3404,174.847 21.5,176.5C 19.8958,175.713 19.2291,174.38 19.5,172.5 Z"/></g>
<g><path style="opacity:1" fill="#151610" d="M 209.5,158.5 C 209.833,158.5 210.167,158.5 210.5,158.5C 213.002,160.513 214.502,163.179 215,166.5C 215.333,165.833 215.667,165.167 216,164.5C 216.667,165.833 217.667,166.833 219,167.5C 219.595,168.899 219.428,170.232 218.5,171.5C 218.855,172.522 219.522,173.189 220.5,173.5C 220.737,174.791 220.404,175.791 219.5,176.5C 217.659,178.849 216.326,181.515 215.5,184.5C 214.326,185.514 213.66,186.847 213.5,188.5C 211.684,190.118 210.351,192.118 209.5,194.5C 209.167,195.167 208.833,195.833 208.5,196.5C 206.937,197.945 205.604,199.611 204.5,201.5C 204.672,202.492 204.338,203.158 203.5,203.5C 202.5,203.833 201.833,204.5 201.5,205.5C 200.542,205.953 199.708,206.619 199,207.5C 198.667,207.167 198.333,206.833 198,206.5C 197.392,208.154 196.892,209.821 196.5,211.5C 194.596,211.738 193.262,212.738 192.5,214.5C 191.833,215.833 190.833,216.833 189.5,217.5C 189.167,217.5 188.833,217.5 188.5,217.5C 187.374,216.142 187.374,214.808 188.5,213.5C 190.834,211.559 193.334,209.893 196,208.5C 196.495,206.527 196.662,204.527 196.5,202.5C 194.712,202.215 193.045,202.548 191.5,203.5C 188.178,206.988 184.678,210.321 181,213.5C 180.53,212.423 180.697,211.423 181.5,210.5C 182.5,208.833 183.833,207.5 185.5,206.5C 187.89,205.109 189.557,203.109 190.5,200.5C 190.5,199.833 190.833,199.5 191.5,199.5C 192.906,199.027 193.573,198.027 193.5,196.5C 194.906,196.027 195.573,195.027 195.5,193.5C 197.262,192.738 198.262,191.404 198.5,189.5C 198.833,188.833 199.167,188.167 199.5,187.5C 200.906,187.027 201.573,186.027 201.5,184.5C 201.5,184.167 201.5,183.833 201.5,183.5C 202.906,183.027 203.573,182.027 203.5,180.5C 203.389,179.883 203.056,179.383 202.5,179C 203.416,178.722 204.082,178.222 204.5,177.5C 205.338,177.158 205.672,176.492 205.5,175.5C 205.557,174.391 205.89,173.391 206.5,172.5C 207.924,170.485 208.59,168.152 208.5,165.5C 208.674,163.139 209.007,160.806 209.5,158.5 Z"/></g>
<g><path style="opacity:0.373" fill="#c9c9c7" d="M 205.5,175.5 C 205.672,176.492 205.338,177.158 204.5,177.5C 203.561,176.673 203.895,176.006 205.5,175.5 Z"/></g>
<g><path style="opacity:1" fill="#24241d" d="M 28.5,157.5 C 31.85,165.991 35.5167,173.991 39.5,181.5C 39.7376,183.404 40.7376,184.738 42.5,185.5C 43.7368,186.965 44.7368,188.632 45.5,190.5C 45.8333,191.5 46.5,192.167 47.5,192.5C 50.8049,196.141 54.1383,199.808 57.5,203.5C 58.075,205.411 59.075,207.078 60.5,208.5C 60.1034,209.525 59.4368,209.692 58.5,209C 54.2009,203.695 49.0342,199.528 43,196.5C 42.6667,196.833 42.3333,197.167 42,197.5C 41.236,192.442 39.0693,188.108 35.5,184.5C 34.8076,185.025 34.3076,185.692 34,186.5C 33.6667,186.167 33.3333,185.833 33,185.5C 33.379,187.075 33.2123,188.575 32.5,190C 42.139,202.483 53.4723,213.149 66.5,222C 67.7589,222.982 69.0922,223.315 70.5,223C 67.6841,219.217 64.5174,215.717 61,212.5C 60.3333,211.833 60.3333,211.167 61,210.5C 61.7697,211.598 62.603,211.598 63.5,210.5C 63.8333,211.5 64.5,212.167 65.5,212.5C 66.5,212.833 67.1667,213.5 67.5,214.5C 69.0941,217.764 71.4275,220.431 74.5,222.5C 74.5,222.833 74.5,223.167 74.5,223.5C 74.8333,224.5 75.5,225.167 76.5,225.5C 78.3223,226.281 78.9889,227.448 78.5,229C 76.2341,230.34 73.9007,230.173 71.5,228.5C 71.0269,227.094 70.0269,226.427 68.5,226.5C 68.0269,225.094 67.0269,224.427 65.5,224.5C 64.5084,224.672 63.8417,224.338 63.5,223.5C 63.1667,222.5 62.5,221.833 61.5,221.5C 61.1667,221.5 60.8333,221.5 60.5,221.5C 59.0892,219.086 57.0892,217.419 54.5,216.5C 53.5,215.833 52.5,215.167 51.5,214.5C 50.8333,213.167 49.8333,212.167 48.5,211.5C 46.7607,208.757 44.4274,206.757 41.5,205.5C 40.1667,203.833 38.8333,202.167 37.5,200.5C 37.1667,199.5 36.5,198.833 35.5,198.5C 35.573,196.973 34.9063,195.973 33.5,195.5C 32.8763,193.246 31.543,191.579 29.5,190.5C 27.9172,188.337 26.5839,186.004 25.5,183.5C 26.7206,184.028 27.8873,184.695 29,185.5C 24.8118,176.943 20.9784,168.11 17.5,159C 17.6301,157.941 18.1301,157.108 19,156.5C 20.6169,157.536 20.7836,158.703 19.5,160C 20.6667,160.5 21.5,161.333 22,162.5C 24.1734,159.723 24.6734,159.89 23.5,163C 24.8491,163.772 25.6824,164.939 26,166.5C 26.5743,164.508 27.741,163.008 29.5,162C 28.6198,160.644 28.2865,159.144 28.5,157.5 Z"/></g>
<g><path style="opacity:0.149" fill="#c1c2bd" d="M 203.5,180.5 C 203.573,182.027 202.906,183.027 201.5,183.5C 201.427,181.973 202.094,180.973 203.5,180.5 Z"/></g>
<g><path style="opacity:0.059" fill="#ebebe7" d="M 219.5,176.5 C 219.206,179.754 217.873,182.421 215.5,184.5C 216.326,181.515 217.659,178.849 219.5,176.5 Z"/></g>
<g><path style="opacity:0.318" fill="#bebeb9" d="M 39.5,181.5 C 41.2624,182.262 42.2624,183.596 42.5,185.5C 40.7376,184.738 39.7376,183.404 39.5,181.5 Z"/></g>
<g><path style="opacity:0.278" fill="#aaaba5" d="M 201.5,184.5 C 201.573,186.027 200.906,187.027 199.5,187.5C 199.427,185.973 200.094,184.973 201.5,184.5 Z"/></g>
<g><path style="opacity:0.02" fill="#edede9" d="M 215.5,184.5 C 215.771,186.38 215.104,187.713 213.5,188.5C 213.66,186.847 214.326,185.514 215.5,184.5 Z"/></g>
<g><path style="opacity:0.02" fill="#cecbcd" d="M 45.5,190.5 C 46.8333,190.5 47.5,191.167 47.5,192.5C 46.5,192.167 45.8333,191.5 45.5,190.5 Z"/></g>
<g><path style="opacity:0.29" fill="#c2c3bd" d="M 198.5,189.5 C 198.262,191.404 197.262,192.738 195.5,193.5C 195.738,191.596 196.738,190.262 198.5,189.5 Z"/></g>
<g><path style="opacity:0.024" fill="#ececea" d="M 213.5,188.5 C 213.13,191.267 211.796,193.267 209.5,194.5C 210.351,192.118 211.684,190.118 213.5,188.5 Z"/></g>
<g><path style="opacity:0.067" fill="#e2e2e0" d="M 29.5,190.5 C 31.543,191.579 32.8763,193.246 33.5,195.5C 31.4689,194.461 30.1355,192.795 29.5,190.5 Z"/></g>
<g><path style="opacity:1" fill="#343420" d="M 60.5,208.5 C 60.8333,208.5 61.1667,208.5 61.5,208.5C 62.5,208.833 63.1667,209.5 63.5,210.5C 62.603,211.598 61.7697,211.598 61,210.5C 60.3333,211.167 60.3333,211.833 61,212.5C 64.5174,215.717 67.6841,219.217 70.5,223C 69.0922,223.315 67.7589,222.982 66.5,222C 53.4723,213.149 42.139,202.483 32.5,190C 33.2123,188.575 33.379,187.075 33,185.5C 33.3333,185.833 33.6667,186.167 34,186.5C 34.3076,185.692 34.8076,185.025 35.5,184.5C 39.0693,188.108 41.236,192.442 42,197.5C 42.3333,197.167 42.6667,196.833 43,196.5C 49.0342,199.528 54.2009,203.695 58.5,209C 59.4368,209.692 60.1034,209.525 60.5,208.5 Z"/></g>
<g><path style="opacity:0.122" fill="#dbdcdb" d="M 195.5,193.5 C 195.573,195.027 194.906,196.027 193.5,196.5C 193.427,194.973 194.094,193.973 195.5,193.5 Z"/></g>
<g><path style="opacity:0.004" fill="#dad9d6" d="M 33.5,195.5 C 34.9063,195.973 35.573,196.973 35.5,198.5C 34.0937,198.027 33.427,197.027 33.5,195.5 Z"/></g>
<g><path style="opacity:0.004" fill="#e4e4e2" d="M 208.5,196.5 C 208.938,196.435 209.272,196.601 209.5,197C 208.299,197.903 207.465,199.069 207,200.5C 206.329,201.252 205.496,201.586 204.5,201.5C 205.604,199.611 206.937,197.945 208.5,196.5 Z"/></g>
<g><path style="opacity:0.369" fill="#aeaeaa" d="M 193.5,196.5 C 193.573,198.027 192.906,199.027 191.5,199.5C 191.427,197.973 192.094,196.973 193.5,196.5 Z"/></g>
<g><path style="opacity:0.012" fill="#f6f7f3" d="M 35.5,198.5 C 36.5,198.833 37.1667,199.5 37.5,200.5C 36.1667,200.5 35.5,199.833 35.5,198.5 Z"/></g>
<g><path style="opacity:0.561" fill="#b1b2ab" d="M 190.5,200.5 C 189.557,203.109 187.89,205.109 185.5,206.5C 186.473,203.865 188.14,201.865 190.5,200.5 Z"/></g>
<g><path style="opacity:0.584" fill="#aeaea9" d="M 57.5,203.5 C 59.5869,204.585 60.9202,206.251 61.5,208.5C 61.1667,208.5 60.8333,208.5 60.5,208.5C 59.075,207.078 58.075,205.411 57.5,203.5 Z"/></g>
<g><path style="opacity:1" fill="#27271a" d="M 188.5,217.5 C 187.5,217.833 186.833,218.5 186.5,219.5C 185.05,221.61 183.05,222.943 180.5,223.5C 178.326,223.75 176.659,224.75 175.5,226.5C 174.486,227.674 173.153,228.34 171.5,228.5C 169.447,228.402 167.78,229.069 166.5,230.5C 165.609,231.11 164.609,231.443 163.5,231.5C 162.167,231.5 160.833,231.5 159.5,231.5C 160.054,227.945 162.054,225.612 165.5,224.5C 167.749,223.92 169.415,222.587 170.5,220.5C 170.5,219.833 170.833,219.5 171.5,219.5C 173.754,218.876 175.421,217.543 176.5,215.5C 177.882,213.451 179.548,211.785 181.5,210.5C 180.697,211.423 180.53,212.423 181,213.5C 184.678,210.321 188.178,206.988 191.5,203.5C 193.045,202.548 194.712,202.215 196.5,202.5C 196.662,204.527 196.495,206.527 196,208.5C 193.334,209.893 190.834,211.559 188.5,213.5C 187.374,214.808 187.374,216.142 188.5,217.5 Z"/></g>
<g><path style="opacity:0.024" fill="#f2f2f1" d="M 203.5,203.5 C 203.5,204.833 202.833,205.5 201.5,205.5C 201.833,204.5 202.5,203.833 203.5,203.5 Z"/></g>
<g><path style="opacity:0.443" fill="#bdbdbd" d="M 41.5,205.5 C 44.4274,206.757 46.7607,208.757 48.5,211.5C 45.5726,210.243 43.2393,208.243 41.5,205.5 Z"/></g>
<g><path style="opacity:0.978" fill="#8b8b86" d="M 201.5,205.5 C 200.581,208.089 198.914,210.089 196.5,211.5C 196.892,209.821 197.392,208.154 198,206.5C 198.333,206.833 198.667,207.167 199,207.5C 199.708,206.619 200.542,205.953 201.5,205.5 Z"/></g>
<g><path style="opacity:0.004" fill="#e7e7e4" d="M 63.5,210.5 C 64.8333,210.5 65.5,211.167 65.5,212.5C 64.5,212.167 63.8333,211.5 63.5,210.5 Z"/></g>
<g><path style="opacity:0.043" fill="#cececa" d="M 196.5,211.5 C 195.738,213.262 194.404,214.262 192.5,214.5C 193.262,212.738 194.596,211.738 196.5,211.5 Z"/></g>
<g><path style="opacity:0.004" fill="#f5f3f3" d="M 48.5,211.5 C 49.8333,212.167 50.8333,213.167 51.5,214.5C 49.5,214.5 48.5,213.5 48.5,211.5 Z"/></g>
<g><path style="opacity:0.569" fill="#a7a8a3" d="M 176.5,215.5 C 175.421,217.543 173.754,218.876 171.5,219.5C 172.539,217.469 174.205,216.136 176.5,215.5 Z"/></g>
<g><path style="opacity:0.004" fill="#e1e1dc" d="M 188.5,217.5 C 188.833,217.5 189.167,217.5 189.5,217.5C 189.027,218.906 188.027,219.573 186.5,219.5C 186.833,218.5 187.5,217.833 188.5,217.5 Z"/></g>
<g><path style="opacity:0.196" fill="#c1c1be" d="M 54.5,216.5 C 57.0892,217.419 59.0892,219.086 60.5,221.5C 57.9108,220.581 55.9108,218.914 54.5,216.5 Z"/></g>
<g><path style="opacity:0.169" fill="#d2d2cd" d="M 67.5,214.5 C 70.5725,216.569 72.9059,219.236 74.5,222.5C 71.4275,220.431 69.0941,217.764 67.5,214.5 Z"/></g>
<g><path style="opacity:0.502" fill="#92938a" d="M 170.5,220.5 C 169.415,222.587 167.749,223.92 165.5,224.5C 166.585,222.413 168.251,221.08 170.5,220.5 Z"/></g>
<g><path style="opacity:0.004" fill="#e2e1e4" d="M 61.5,221.5 C 62.5,221.833 63.1667,222.5 63.5,223.5C 62.1667,223.5 61.5,222.833 61.5,221.5 Z"/></g>
<g><path style="opacity:0.024" fill="#d0d0d0" d="M 74.5,223.5 C 75.8333,223.5 76.5,224.167 76.5,225.5C 75.5,225.167 74.8333,224.5 74.5,223.5 Z"/></g>
<g><path style="opacity:0.165" fill="#c4c4c3" d="M 180.5,223.5 C 179.341,225.25 177.674,226.25 175.5,226.5C 176.659,224.75 178.326,223.75 180.5,223.5 Z"/></g>
<g><path style="opacity:0.353" fill="#9d9d9d" d="M 65.5,224.5 C 67.0269,224.427 68.0269,225.094 68.5,226.5C 66.9731,226.573 65.9731,225.906 65.5,224.5 Z"/></g>
<g><path style="opacity:0.063" fill="#d0d0d0" d="M 68.5,226.5 C 70.0269,226.427 71.0269,227.094 71.5,228.5C 69.9731,228.573 68.9731,227.906 68.5,226.5 Z"/></g>
<g><path style="opacity:0.114" fill="#c4c5c0" d="M 171.5,228.5 C 170.22,229.931 168.553,230.598 166.5,230.5C 167.78,229.069 169.447,228.402 171.5,228.5 Z"/></g>
<g><path style="opacity:0.243" fill="#d5d5d5" d="M 159.5,231.5 C 160.833,231.5 162.167,231.5 163.5,231.5C 161.968,233.781 160.634,233.781 159.5,231.5 Z"/></g>
</svg>
